<?xml version="1.0" standalone="no"?>
<!DOCTYPE svg PUBLIC "-//W3C//DTD SVG 20010904//EN"
 "http://www.w3.org/TR/2001/REC-SVG-20010904/DTD/svg10.dtd">
<svg version="1.0" xmlns="http://www.w3.org/2000/svg"
 width="940.000000pt" height="179.000000pt" viewBox="0 0 940.000000 179.000000"
 preserveAspectRatio="xMidYMid meet">

<g transform="translate(0.000000,179.000000) scale(0.100000,-0.100000)"
fill="#000000" stroke="none">
<path d="M1318 1775 c-3 -3 -3 -17 0 -30 6 -36 32 -32 32 5 0 27 -17 40 -32
25z"/>
<path d="M1457 1773 c-4 -3 -7 -23 -7 -44 0 -34 -3 -38 -27 -41 -17 -2 -32
-12 -40 -28 -16 -31 -17 -116 -2 -158 10 -29 13 -31 60 -30 l49 1 0 154 c0
121 -3 153 -13 153 -8 0 -17 -3 -20 -7z m-12 -194 c0 -41 -4 -54 -15 -54 -16
0 -27 73 -16 102 13 33 31 5 31 -48z"/>
<path d="M1980 1750 c0 -23 4 -30 20 -30 16 0 20 7 20 30 0 23 -4 30 -20 30
-16 0 -20 -7 -20 -30z"/>
<path d="M2047 1773 c-4 -3 -7 -73 -7 -155 0 -141 1 -148 20 -148 19 0 20 7
20 155 0 122 -3 155 -13 155 -8 0 -17 -3 -20 -7z"/>
<path d="M2680 1735 c0 -43 -1 -45 -28 -45 -15 0 -33 -5 -40 -12 -17 -17 -16
-182 1 -196 6 -6 32 -9 57 -8 l45 2 3 152 c2 147 2 152 -18 152 -17 0 -20 -6
-20 -45z m-2 -146 c2 -33 -2 -50 -13 -59 -21 -18 -35 1 -35 47 0 44 10 65 29
61 11 -2 17 -16 19 -49z"/>
<path d="M3210 1751 c0 -25 4 -31 21 -31 16 0 20 5 17 27 -2 17 -10 29 -20 31
-14 3 -18 -3 -18 -27z"/>
<path d="M4155 1768 c-6 -16 -1 -115 7 -123 11 -11 29 53 26 90 -3 38 -23 59
-33 33z"/>
<path d="M1148 1765 c-2 -3 7 -69 21 -147 l26 -143 30 0 30 0 22 120 c28 153
28 178 6 173 -14 -3 -22 -24 -35 -103 -10 -54 -19 -104 -21 -110 -2 -5 -12 35
-21 90 -10 55 -19 106 -21 113 -4 12 -27 17 -37 7z"/>
<path d="M1811 1748 c0 -13 10 -79 23 -148 l22 -125 32 -3 c21 -2 32 1 32 10
0 7 11 73 24 146 21 116 22 134 9 139 -20 8 -30 -10 -38 -66 -3 -25 -11 -71
-17 -101 l-11 -55 -21 110 c-17 86 -25 110 -38 113 -13 3 -18 -3 -17 -20z"/>
<path d="M2464 1757 c-2 -7 -3 -74 -2 -148 l3 -134 58 -3 57 -3 0 31 c0 28 -3
30 -35 30 -33 0 -35 2 -35 35 0 32 2 35 30 35 25 0 30 4 30 25 0 21 -5 25 -30
25 -27 0 -30 3 -30 30 0 28 3 30 35 30 32 0 35 2 35 30 0 30 -1 30 -55 30 -36
0 -57 -5 -61 -13z"/>
<path d="M3587 1763 c-4 -3 -7 -17 -7 -30 0 -18 5 -23 25 -23 l25 0 0 -120 c0
-113 1 -120 20 -120 19 0 20 7 20 120 l0 120 25 0 c21 0 25 5 25 30 l0 30 -63
0 c-35 0 -67 -3 -70 -7z"/>
<path d="M3138 1742 c-11 -2 -18 -13 -18 -27 0 -13 -4 -27 -10 -30 -5 -3 -10
-15 -10 -26 0 -10 5 -19 10 -19 6 0 10 -31 10 -73 0 -78 9 -97 47 -97 18 0 23
6 23 25 0 16 -6 25 -15 25 -12 0 -15 13 -15 60 0 47 3 60 15 60 9 0 15 9 15
25 0 15 -6 25 -14 25 -9 0 -16 12 -18 28 -2 20 -8 27 -20 24z"/>
<path d="M4079 1742 c-22 -4 -28 -46 -21 -152 5 -99 14 -120 47 -120 20 0 25
5 25 25 0 16 -6 25 -15 25 -12 0 -15 13 -15 55 0 40 4 57 15 61 19 8 20 54 1
54 -9 0 -16 12 -18 28 -2 19 -8 26 -19 24z"/>
<path d="M1314 1677 c-3 -8 -3 -56 -2 -108 3 -80 6 -94 21 -97 15 -3 17 7 17
107 0 93 -2 111 -15 111 -9 0 -18 -6 -21 -13z"/>
<path d="M1510 1666 c0 -34 30 -179 40 -189 4 -4 4 -26 0 -48 -7 -39 3 -60 21
-42 5 5 20 65 34 133 14 69 27 135 30 148 4 17 1 22 -14 22 -15 0 -22 -11 -30
-50 -6 -28 -11 -60 -11 -71 0 -39 -17 -9 -24 41 -4 28 -9 57 -12 65 -10 24
-34 18 -34 -9z"/>
<path d="M1657 1683 c-4 -3 -7 -15 -7 -25 0 -13 8 -18 30 -18 25 0 30 -4 30
-25 0 -20 -5 -25 -25 -25 -34 0 -51 -37 -39 -82 9 -31 13 -33 57 -34 l47 -2 0
90 c0 107 -9 128 -54 128 -18 0 -36 -3 -39 -7z m53 -148 c0 -8 -7 -15 -15 -15
-8 0 -15 7 -15 15 0 8 7 15 15 15 8 0 15 -7 15 -15z"/>
<path d="M1980 1580 c0 -101 2 -111 18 -108 15 3 17 16 17 108 0 92 -2 105
-17 108 -16 3 -18 -7 -18 -108z"/>
<path d="M2106 1635 c-16 -52 -16 -58 0 -110 13 -40 23 -55 36 -55 22 0 22 4
2 63 -15 43 -15 51 0 94 20 59 20 63 -2 63 -13 0 -23 -15 -36 -55z"/>
<path d="M2187 1683 c-4 -3 -7 -15 -7 -25 0 -13 8 -18 30 -18 25 0 30 -4 30
-25 0 -20 -5 -25 -25 -25 -32 0 -49 -38 -37 -83 8 -30 11 -32 55 -33 l47 -2 0
97 c0 62 -4 101 -12 109 -13 13 -70 17 -81 5z m53 -148 c0 -8 -7 -15 -15 -15
-16 0 -20 12 -8 23 11 12 23 8 23 -8z"/>
<path d="M2322 1682 c-7 -5 -15 -25 -19 -45 -5 -32 -2 -40 26 -66 38 -36 39
-49 4 -53 -20 -2 -28 -9 -28 -23 0 -16 8 -21 35 -23 42 -4 60 16 60 70 0 33
-5 42 -30 56 -36 21 -39 42 -5 42 20 0 25 5 25 25 0 21 -5 25 -27 25 -16 0
-34 -4 -41 -8z"/>
<path d="M2740 1593 c0 -54 4 -103 8 -109 4 -7 30 -11 60 -11 l52 1 0 108 c0
101 -1 108 -20 108 -17 0 -19 -8 -22 -77 -3 -65 -6 -78 -20 -81 -16 -3 -18 6
-18 77 0 74 -2 81 -20 81 -19 0 -20 -7 -20 -97z"/>
<path d="M2897 1672 c-13 -14 -17 -38 -17 -95 0 -85 12 -107 61 -107 24 0 29
4 29 24 0 18 -6 25 -22 28 -21 3 -23 9 -23 58 0 49 2 55 23 58 16 3 22 10 22
28 0 20 -5 24 -28 24 -16 0 -36 -8 -45 -18z"/>
<path d="M2997 1683 c-4 -3 -7 -15 -7 -25 0 -13 8 -18 30 -18 25 0 30 -4 30
-25 0 -20 -5 -25 -25 -25 -32 0 -49 -38 -37 -83 8 -30 11 -32 55 -33 l47 -2 0
97 c0 62 -4 101 -12 109 -13 13 -70 17 -81 5z m53 -148 c0 -8 -7 -15 -15 -15
-8 0 -15 7 -15 15 0 8 7 15 15 15 8 0 15 -7 15 -15z"/>
<path d="M3210 1580 c0 -101 2 -111 18 -108 15 3 17 16 17 108 0 92 -2 105
-17 108 -16 3 -18 -7 -18 -108z"/>
<path d="M3287 1675 c-33 -32 -33 -158 0 -190 8 -8 28 -15 44 -15 25 0 33 6
45 35 24 58 14 156 -19 177 -20 12 -55 9 -70 -7z m57 -51 c15 -39 3 -104 -19
-104 -16 0 -25 22 -25 60 0 38 9 60 25 60 7 0 16 -7 19 -16z"/>
<path d="M3410 1579 c0 -98 2 -110 17 -107 14 2 16 14 14 69 -2 49 2 69 13 78
26 22 36 2 36 -75 0 -59 3 -74 15 -74 12 0 15 18 15 105 0 115 -7 129 -55 107
-15 -7 -26 -8 -30 -2 -18 29 -25 -1 -25 -101z"/>
<path d="M3720 1580 c0 -103 1 -110 20 -110 18 0 20 7 20 69 0 49 4 72 15 81
8 7 15 26 15 42 0 27 -2 29 -17 17 -13 -11 -17 -11 -20 -1 -3 6 -11 12 -19 12
-11 0 -14 -22 -14 -110z"/>
<path d="M3804 1675 c-11 -27 0 -183 14 -197 9 -9 19 -10 42 -1 17 6 30 7 30
2 0 -5 7 -9 15 -9 12 0 15 19 15 111 0 100 -2 110 -17 107 -15 -3 -19 -17 -23
-78 -4 -61 -8 -75 -22 -78 -16 -3 -18 6 -18 77 0 66 -3 81 -15 81 -9 0 -18 -7
-21 -15z"/>
<path d="M3961 1681 c-8 -5 -14 -27 -15 -51 -1 -35 4 -46 27 -64 34 -28 34
-44 0 -48 -20 -2 -28 -9 -28 -23 0 -16 8 -21 35 -23 42 -4 60 16 60 70 0 33
-5 42 -30 56 -36 20 -39 42 -6 42 24 0 41 23 30 41 -7 11 -55 11 -73 0z"/>
<path d="M4210 1671 c-12 -23 -13 -71 -2 -87 4 -6 17 -16 30 -23 33 -17 28
-41 -9 -41 -26 0 -30 -3 -27 -22 4 -31 65 -39 85 -12 28 39 3 124 -37 124 -5
0 -10 7 -10 15 0 9 9 15 25 15 20 0 25 5 25 25 0 22 -4 25 -35 25 -24 0 -37
-6 -45 -19z"/>
<path d="M423 1666 c-159 -52 -274 -221 -317 -465 -5 -29 -4 -32 12 -26 28 12
150 33 235 40 l77 7 0 114 0 115 68 -3 67 -3 2 -108 c0 -60 3 -111 6 -113 3
-3 49 -10 104 -15 54 -5 122 -15 151 -22 51 -14 52 -14 52 8 0 42 -42 181 -75
251 -85 177 -240 267 -382 220z"/>
<path d="M450 1221 c0 -110 -4 -202 -8 -205 -4 -2 -57 -10 -118 -16 -60 -7
-140 -21 -179 -31 -96 -26 -99 -27 -103 -5 -3 16 0 18 22 12 21 -5 26 -3 26
12 0 15 12 22 54 31 53 12 207 30 254 31 18 0 23 5 20 23 -3 21 -7 22 -68 19
-100 -4 -210 -22 -263 -42 -44 -17 -48 -17 -45 -2 2 9 23 27 48 39 41 20 104
31 273 49 52 5 58 8 55 27 -3 19 -9 21 -58 19 -155 -7 -298 -41 -333 -80 -17
-19 -23 -167 -7 -177 4 -3 3 -18 -3 -34 -5 -15 -7 -35 -4 -44 11 -28 108 -79
123 -65 12 13 -12 41 -47 55 -27 10 -39 21 -39 35 0 17 4 19 32 13 26 -6 30
-5 25 9 -5 12 1 20 20 27 42 16 211 39 286 39 l67 0 -2 227 c-2 170 -6 227
-15 231 -10 3 -13 -41 -13 -197z"/>
<path d="M510 1237 l0 -184 98 -6 c123 -8 269 -35 287 -54 8 -8 19 -12 24 -9
13 8 31 -17 23 -31 -5 -8 -23 -6 -65 8 -70 24 -230 49 -309 49 -49 0 -58 -3
-58 -18 0 -16 15 -20 118 -30 64 -6 147 -19 185 -28 60 -14 67 -18 67 -40 0
-26 11 -30 41 -14 13 8 19 7 19 0 0 -6 -20 -23 -45 -38 -41 -25 -64 -56 -52
-69 7 -6 97 34 118 53 13 12 17 32 17 87 0 40 -5 78 -11 85 -7 9 -7 16 1 24 7
7 12 24 12 39 0 55 -78 90 -260 114 -145 20 -150 20 -150 -8 0 -22 6 -24 108
-35 178 -20 287 -56 262 -87 -9 -11 -20 -10 -66 5 -51 18 -127 30 -276 46
l-58 5 0 160 c0 135 -2 159 -15 159 -13 0 -15 -27 -15 -183z"/>
<path d="M6093 1339 c-49 -14 -67 -50 -73 -143 -5 -75 -7 -81 -27 -84 -21 -3
-23 -9 -23 -57 0 -48 2 -54 23 -57 22 -3 22 -5 25 -185 l2 -183 45 0 45 0 2
183 3 182 38 3 37 3 0 54 0 54 -37 3 c-37 3 -38 4 -41 44 -4 50 17 77 52 68
20 -5 24 -1 30 27 9 49 7 79 -6 83 -36 11 -66 13 -95 5z"/>
<path d="M1887 1333 c-4 -3 -7 -37 -7 -75 l0 -68 50 0 50 0 0 75 0 75 -43 0
c-24 0 -47 -3 -50 -7z"/>
<path d="M3458 1333 l-28 -4 0 -350 0 -349 50 0 50 0 0 355 0 355 -22 -1 c-13
-1 -35 -4 -50 -6z"/>
<path d="M4373 1333 l-23 -4 0 -350 0 -349 45 0 45 0 0 355 0 355 -22 -1 c-13
-1 -33 -4 -45 -6z"/>
<path d="M4530 1331 l-25 -7 0 -344 0 -345 48 -3 47 -3 0 355 0 356 -22 -1
c-13 -1 -34 -4 -48 -8z"/>
<path d="M7310 1265 l0 -75 50 0 50 0 0 75 0 75 -50 0 -50 0 0 -75z"/>
<path d="M8620 1265 l0 -75 50 0 50 0 0 75 0 75 -50 0 -50 0 0 -75z"/>
<path d="M1147 1303 c-12 -11 -8 -488 4 -545 24 -110 125 -164 228 -121 35 14
52 29 71 63 l25 45 0 280 0 280 -45 0 -45 0 -5 -257 c-6 -285 -7 -292 -71
-290 -63 2 -64 5 -67 292 l-3 260 -43 0 c-23 0 -46 -3 -49 -7z"/>
<path d="M3755 1279 c-57 -51 -67 -104 -63 -337 3 -182 5 -200 26 -240 32 -60
92 -87 172 -79 85 9 90 13 90 61 0 82 -2 83 -88 82 -72 -1 -77 0 -89 24 -16
32 -18 303 -2 349 14 38 43 47 115 34 60 -11 64 -7 64 78 0 55 -7 59 -117 59
-67 0 -75 -2 -108 -31z"/>
<path d="M6337 1304 c-4 -4 -7 -157 -7 -341 l0 -334 143 3 142 3 0 64 0 63
-90 2 -90 1 -3 73 -3 72 86 0 85 0 0 70 0 70 -85 0 -85 0 0 60 0 59 93 3 92 3
0 65 0 65 -136 3 c-74 1 -138 -1 -142 -4z"/>
<path d="M1662 1110 c-37 -16 -44 -17 -48 -5 -4 9 -19 15 -40 15 l-34 0 0
-245 0 -245 45 0 45 0 0 159 c0 132 3 162 16 175 18 19 59 30 73 21 7 -4 11
-69 11 -181 l0 -174 51 0 51 0 -4 219 c-3 204 -4 222 -24 248 -27 36 -81 41
-142 13z"/>
<path d="M2391 1105 c-44 -38 -56 -83 -56 -225 0 -77 5 -139 13 -162 16 -46
61 -85 107 -94 42 -8 135 13 142 32 3 8 2 34 -1 58 -7 44 -7 44 -39 35 -79
-23 -127 -3 -127 52 l0 29 90 0 90 0 0 70 c0 98 -16 164 -50 200 -25 26 -35
30 -83 30 -45 0 -61 -5 -86 -25z m119 -111 c18 -47 14 -54 -35 -54 -39 0 -45
3 -45 21 0 58 61 84 80 33z"/>
<path d="M2777 1106 c-35 -24 -36 -24 -42 -5 -5 14 -16 19 -46 19 l-39 0 0
-245 0 -245 50 0 50 0 0 155 0 155 40 26 40 27 0 68 c0 38 -4 69 -9 69 -4 0
-24 -11 -44 -24z"/>
<path d="M2897 1119 c-31 -18 -47 -65 -47 -136 0 -90 13 -112 83 -146 55 -27
58 -30 55 -60 l-3 -32 -67 2 -68 1 -2 -34 c-1 -19 -2 -42 -2 -51 -2 -36 122
-55 175 -27 41 20 59 69 59 151 -1 86 -15 111 -81 143 -47 22 -54 29 -54 55 0
30 0 30 60 30 l60 0 3 49 c2 32 -1 52 -10 57 -18 12 -139 10 -161 -2z"/>
<path d="M3150 1121 c-22 -7 -25 -12 -22 -52 4 -67 5 -68 52 -58 44 10 80 4
92 -15 4 -6 8 -27 8 -47 l0 -37 -61 -4 c-73 -5 -94 -24 -105 -93 -10 -71 3
-134 36 -167 34 -33 53 -35 103 -9 32 16 39 17 44 5 3 -9 20 -14 45 -14 l40 0
-4 208 c-5 274 -15 293 -146 291 -31 -1 -68 -4 -82 -8z m130 -341 c0 -19 -7
-33 -19 -40 -30 -15 -40 -12 -53 15 -14 32 4 55 43 55 25 0 29 -4 29 -30z"/>
<path d="M4078 1115 c-14 -8 -35 -34 -47 -58 -18 -37 -21 -62 -21 -178 0 -120
2 -140 23 -179 28 -56 75 -83 134 -77 102 11 132 67 133 246 0 145 -11 191
-57 231 -28 25 -42 30 -86 30 -29 -1 -64 -7 -79 -15z m120 -135 c9 -17 12 -54
9 -119 -2 -78 -6 -96 -22 -107 -24 -18 -36 -18 -61 0 -27 20 -34 193 -9 232
21 33 64 30 83 -6z"/>
<path d="M4701 1105 c-16 -14 -35 -42 -43 -63 -14 -41 -18 -245 -5 -305 12
-55 59 -104 108 -112 47 -8 138 11 146 31 3 8 2 35 -2 60 -5 37 -9 44 -23 39
-9 -4 -38 -10 -63 -12 -54 -6 -79 12 -79 58 l0 29 91 0 92 0 -6 99 c-8 151
-41 200 -134 201 -41 0 -58 -5 -82 -25z m122 -118 c14 -43 5 -53 -42 -49 -33
3 -41 8 -41 24 0 61 64 80 83 25z"/>
<path d="M4991 1104 c-37 -31 -51 -77 -51 -169 0 -51 6 -82 20 -110 18 -36 19
-42 5 -81 -18 -53 -10 -100 19 -119 11 -7 41 -16 66 -20 72 -10 80 -15 80 -40
0 -18 -7 -26 -26 -31 -24 -6 -86 -1 -130 12 -19 5 -22 1 -27 -43 -3 -26 -2
-52 2 -56 14 -14 127 -30 165 -23 20 4 51 20 69 35 29 27 32 35 35 102 3 64 1
78 -17 101 -14 17 -35 29 -59 33 -92 15 -93 16 -90 38 2 17 13 23 47 29 85 14
117 76 109 206 -4 56 -2 75 8 79 8 3 14 20 14 38 l0 32 -77 7 c-117 9 -129 8
-162 -20z m117 -96 c16 -16 16 -110 0 -126 -7 -7 -21 -12 -33 -12 -33 0 -45
20 -45 75 0 55 12 75 45 75 12 0 26 -5 33 -12z"/>
<path d="M5301 1105 c-16 -14 -35 -42 -43 -63 -14 -41 -18 -245 -5 -305 12
-55 59 -104 108 -112 47 -8 138 11 146 31 3 8 2 35 -2 60 -5 37 -9 44 -23 39
-9 -4 -38 -10 -63 -12 -54 -6 -79 12 -79 58 l0 29 92 0 91 0 -6 100 c-9 153
-42 200 -142 200 -32 0 -51 -7 -74 -25z m119 -111 c18 -47 14 -54 -35 -54 -39
0 -45 3 -45 21 0 58 61 84 80 33z"/>
<path d="M5717 1100 c-49 -42 -60 -92 -56 -247 4 -146 19 -184 79 -216 41 -21
107 -18 146 8 49 32 64 85 64 234 0 117 -3 140 -21 178 -25 53 -61 73 -128 73
-42 0 -56 -5 -84 -30z m129 -115 c25 -38 17 -211 -10 -231 -25 -18 -37 -18
-62 0 -17 13 -19 27 -19 119 0 113 9 137 51 137 14 0 30 -10 40 -25z"/>
<path d="M6792 1110 c-37 -17 -44 -17 -48 -5 -4 9 -19 15 -40 15 l-34 0 0
-245 0 -245 45 0 45 0 0 165 0 165 34 17 c64 30 66 24 66 -172 l0 -175 46 0
45 0 -3 229 c-3 209 -5 231 -22 250 -24 27 -76 27 -134 1z"/>
<path d="M7035 1097 c-27 -27 -34 -44 -40 -91 -10 -76 -1 -161 20 -193 14 -20
15 -30 6 -50 -6 -13 -11 -46 -11 -73 0 -61 19 -77 102 -86 61 -7 82 -21 72
-48 -9 -24 -49 -30 -113 -18 -31 5 -59 7 -63 4 -3 -4 -8 -27 -10 -52 l-3 -45
45 -12 c103 -26 192 -5 216 53 17 41 18 134 2 169 -11 25 -41 38 -120 50 -21
3 -38 10 -38 15 0 27 15 40 45 40 42 0 90 39 105 86 7 19 10 71 9 116 -3 58 0
83 9 86 6 2 12 18 12 36 l0 33 -77 7 c-125 10 -132 9 -168 -27z m123 -89 c7
-7 12 -35 12 -63 0 -28 -5 -56 -12 -63 -17 -17 -44 -15 -62 4 -18 18 -21 85
-6 115 12 21 50 25 68 7z"/>
<path d="M7592 1110 c-37 -16 -44 -17 -48 -5 -4 9 -19 15 -40 15 l-34 0 0
-245 0 -245 45 0 45 0 0 159 c0 132 3 162 16 175 18 19 59 30 73 21 7 -4 11
-69 11 -181 l0 -174 51 0 51 0 -4 219 c-3 204 -4 222 -24 248 -27 36 -81 41
-142 13z"/>
<path d="M7864 1111 c-50 -31 -64 -81 -64 -234 0 -108 4 -140 19 -174 34 -73
99 -97 194 -69 l55 16 -5 43 c-7 67 -8 67 -48 56 -59 -17 -98 -8 -113 24 -24
49 -12 57 83 57 l85 0 0 83 c0 101 -14 152 -50 189 -23 23 -37 28 -77 28 -29
0 -60 -7 -79 -19z m104 -103 c7 -7 12 -25 12 -40 0 -27 -2 -28 -45 -28 -36 0
-45 3 -45 18 0 45 50 78 78 50z"/>
<path d="M8164 1111 c-50 -30 -59 -67 -59 -236 0 -170 11 -204 75 -238 38 -20
116 -17 164 5 23 10 25 15 20 52 -9 66 -9 66 -49 55 -59 -17 -98 -8 -113 24
-24 49 -12 57 83 57 l85 0 0 83 c0 101 -14 152 -50 189 -23 23 -37 28 -77 28
-29 0 -60 -7 -79 -19z m104 -103 c7 -7 12 -25 12 -40 0 -27 -2 -28 -46 -28
-45 0 -46 0 -39 27 12 50 45 69 73 41z"/>
<path d="M8539 1104 c-33 -24 -34 -24 -37 -5 -3 17 -11 21 -43 21 l-39 0 0
-245 0 -245 45 0 45 0 0 153 1 152 32 23 c17 13 38 27 45 32 11 6 12 23 7 74
-4 36 -10 66 -14 66 -4 0 -23 -11 -42 -26z"/>
<path d="M8902 1110 c-37 -17 -44 -17 -48 -5 -4 9 -19 15 -40 15 l-34 0 0
-245 0 -245 45 0 45 0 0 165 0 165 34 17 c64 30 66 24 66 -172 l0 -175 50 0
50 0 0 179 c0 190 -10 273 -37 303 -21 24 -76 23 -131 -2z"/>
<path d="M9151 1105 c-22 -19 -33 -40 -42 -83 -14 -69 -6 -175 17 -210 13 -19
14 -30 5 -49 -15 -33 -14 -105 3 -128 9 -12 36 -22 81 -30 78 -12 104 -35 71
-61 -23 -16 -63 -18 -121 -4 -22 5 -41 7 -44 5 -2 -3 -7 -25 -11 -51 -7 -42
-5 -46 17 -55 44 -17 127 -21 171 -10 60 17 82 55 82 144 0 38 -4 77 -10 87
-11 20 -60 40 -100 40 -14 0 -35 6 -45 14 -16 12 -17 16 -6 30 7 9 26 16 41
16 38 0 87 43 101 88 6 21 9 72 7 114 -2 64 0 78 15 87 10 7 17 23 17 40 0 28
0 28 -82 34 -125 10 -134 9 -167 -18z m117 -97 c7 -7 12 -35 12 -63 0 -28 -5
-56 -12 -63 -17 -17 -44 -15 -62 4 -18 18 -21 85 -6 115 12 21 50 25 68 7z"/>
<path d="M1882 878 l3 -243 48 -3 47 -3 0 245 0 246 -50 0 -50 0 2 -242z"/>
<path d="M2003 1107 c3 -7 27 -118 53 -245 l48 -232 63 0 c35 0 63 3 63 8 0 4
23 113 50 242 27 129 50 236 50 238 0 1 -22 2 -49 2 l-49 0 -27 -147 c-15 -82
-31 -157 -35 -168 -5 -13 -15 21 -29 100 -13 66 -27 141 -33 168 l-10 47 -50
0 c-37 0 -49 -3 -45 -13z"/>
<path d="M7310 875 l0 -245 50 0 50 0 0 245 0 245 -50 0 -50 0 0 -245z"/>
<path d="M8620 875 l0 -245 50 0 50 0 0 245 0 245 -50 0 -50 0 0 -245z"/>
<path d="M290 919 c-145 -19 -155 -23 -152 -50 1 -13 18 -57 37 -97 44 -94
119 -173 202 -213 57 -29 69 -31 137 -27 56 4 85 11 119 31 64 38 138 123 179
208 57 119 57 116 -4 128 -158 31 -371 39 -518 20z"/>
<path d="M1440 350 c0 -23 4 -30 20 -30 16 0 20 7 20 30 0 23 -4 30 -20 30
-16 0 -20 -7 -20 -30z"/>
<path d="M1930 350 c0 -23 4 -30 20 -30 16 0 20 7 20 30 0 23 -4 30 -20 30
-16 0 -20 -7 -20 -30z"/>
<path d="M2170 350 c0 -23 4 -30 20 -30 16 0 20 7 20 30 0 23 -4 30 -20 30
-16 0 -20 -7 -20 -30z"/>
<path d="M2650 350 c0 -24 4 -31 17 -28 11 2 17 12 17 28 0 16 -6 26 -17 28
-13 3 -17 -4 -17 -28z"/>
<path d="M2910 350 c0 -23 4 -30 20 -30 16 0 20 7 20 30 0 23 -4 30 -20 30
-16 0 -20 -7 -20 -30z"/>
<path d="M3330 350 c0 -23 4 -30 20 -30 16 0 20 7 20 30 0 23 -4 30 -20 30
-16 0 -20 -7 -20 -30z"/>
<path d="M3760 350 c0 -23 4 -30 20 -30 16 0 20 7 20 30 0 23 -4 30 -20 30
-16 0 -20 -7 -20 -30z"/>
<path d="M4500 350 c0 -23 4 -30 20 -30 16 0 20 7 20 30 0 23 -4 30 -20 30
-16 0 -20 -7 -20 -30z"/>
<path d="M4890 350 c0 -20 5 -30 15 -30 10 0 15 10 15 30 0 20 -5 30 -15 30
-10 0 -15 -10 -15 -30z"/>
<path d="M1174 363 c-24 -17 -34 -55 -34 -132 0 -119 20 -148 96 -139 28 3 29
4 32 71 2 55 0 67 -13 67 -11 0 -15 -11 -15 -40 0 -44 -19 -61 -45 -40 -11 9
-15 32 -15 80 0 76 11 93 57 88 24 -3 28 1 28 22 0 22 -5 25 -40 28 -22 1 -45
-1 -51 -5z"/>
<path d="M2044 357 c-2 -7 -3 -69 -2 -138 l3 -124 58 -3 58 -3 -3 28 c-3 25
-7 28 -38 28 l-35 1 -3 112 c-2 92 -5 112 -18 112 -8 0 -17 -6 -20 -13z"/>
<path d="M3126 278 c-11 -160 -9 -188 14 -188 18 0 20 7 20 73 0 76 13 78 25
4 6 -32 11 -38 28 -35 16 2 25 16 37 53 l15 50 3 -72 c3 -67 5 -73 24 -73 20
0 21 3 15 83 -4 45 -7 108 -7 140 0 50 -2 57 -20 57 -14 0 -22 -11 -30 -42 -6
-24 -17 -63 -23 -88 l-13 -45 -23 88 c-18 68 -27 87 -40 87 -15 0 -19 -13 -25
-92z"/>
<path d="M4090 230 c0 -133 1 -140 20 -140 19 0 20 7 20 140 0 133 -1 140 -20
140 -19 0 -20 -7 -20 -140z"/>
<path d="M1854 333 c-3 -10 -11 -28 -17 -40 -7 -17 -7 -29 1 -45 7 -13 13 -52
14 -88 3 -65 3 -65 33 -65 24 0 29 4 27 20 -2 11 -8 22 -13 23 -5 2 -9 28 -9
58 0 41 4 54 15 54 8 0 15 9 15 20 0 11 -7 20 -15 20 -10 0 -15 10 -15 30 0
33 -27 43 -36 13z"/>
<path d="M2834 333 c-3 -10 -11 -28 -17 -40 -7 -17 -7 -29 1 -45 7 -13 13 -52
14 -88 3 -63 4 -65 31 -68 23 -3 27 0 27 22 0 16 -6 26 -15 26 -11 0 -15 12
-15 50 0 36 4 52 15 56 8 4 15 14 15 24 0 10 -7 20 -15 24 -8 3 -15 17 -15 31
0 29 -18 34 -26 8z"/>
<path d="M3834 333 c-3 -10 -11 -28 -17 -40 -7 -17 -7 -29 1 -45 7 -13 13 -52
14 -88 3 -63 4 -65 31 -68 23 -3 27 0 27 22 0 14 -4 26 -10 26 -17 0 -12 99 5
117 9 8 17 14 19 12 9 -12 39 -181 38 -216 -1 -35 2 -43 16 -43 17 0 23 21 70
258 3 17 0 22 -17 22 -12 0 -21 -6 -21 -15 0 -23 -23 -121 -26 -110 -1 6 -8
36 -14 68 -11 56 -12 57 -46 57 -31 0 -34 2 -34 30 0 33 -27 43 -36 13z"/>
<path d="M4424 333 c-3 -10 -11 -28 -17 -40 -7 -17 -7 -29 1 -45 7 -13 13 -52
14 -88 3 -63 4 -65 31 -68 23 -3 27 0 27 22 0 16 -6 26 -15 26 -11 0 -15 12
-15 50 0 36 4 52 15 56 8 4 15 14 15 24 0 10 -7 20 -15 24 -8 3 -15 17 -15 31
0 29 -18 34 -26 8z"/>
<path d="M4577 343 c-4 -3 -7 -17 -7 -30 0 -12 -4 -23 -10 -23 -5 0 -10 -9
-10 -19 0 -11 5 -23 10 -26 6 -3 10 -33 10 -65 0 -77 6 -90 41 -90 32 0 38 19
14 44 -9 9 -15 34 -15 65 0 39 4 51 15 51 8 0 15 9 15 20 0 11 -7 20 -15 20
-10 0 -15 10 -15 30 0 28 -17 40 -33 23z"/>
<path d="M4807 343 c-4 -3 -7 -17 -7 -30 0 -12 -4 -23 -10 -23 -5 0 -10 -9
-10 -20 0 -11 5 -20 10 -20 6 0 10 -29 10 -68 0 -73 10 -92 47 -92 27 0 33 37
8 46 -11 5 -15 21 -15 60 0 41 4 54 15 54 8 0 15 9 15 20 0 11 -7 20 -15 20
-10 0 -15 10 -15 30 0 28 -17 40 -33 23z"/>
<path d="M1518 293 c-32 -8 -16 -39 22 -44 17 -3 25 -10 25 -24 0 -14 -8 -21
-25 -24 -31 -4 -40 -17 -40 -56 0 -45 10 -53 63 -53 l47 1 0 84 c0 70 -3 86
-20 103 -19 19 -36 23 -72 13z m50 -145 c-6 -18 -28 -21 -28 -4 0 9 7 16 16
16 9 0 14 -5 12 -12z"/>
<path d="M1733 293 c-25 -10 -14 -42 15 -45 38 -4 38 -42 0 -46 -33 -4 -46
-39 -32 -81 8 -23 15 -26 57 -27 l47 -2 0 88 c0 71 -3 90 -18 103 -18 17 -45
20 -69 10z m45 -145 c-6 -18 -28 -21 -28 -4 0 9 7 16 16 16 9 0 14 -5 12 -12z"/>
<path d="M2307 293 c-4 -3 -20 -6 -37 -5 l-30 1 0 -100 c0 -90 2 -100 18 -97
14 3 18 17 22 73 4 53 9 70 20 70 12 0 16 -16 18 -72 2 -56 6 -73 17 -73 23 0
22 195 -1 204 -19 7 -19 7 -27 -1z"/>
<path d="M2389 279 c-17 -17 -20 -29 -15 -67 3 -26 6 -65 8 -87 3 -35 6 -40
32 -45 44 -8 44 -28 -1 -32 -51 -4 -59 -33 -11 -41 46 -6 74 7 82 38 10 40 -2
65 -35 72 -36 7 -36 14 0 34 25 15 29 24 33 75 3 33 5 60 4 60 0 1 -18 4 -38
8 -30 6 -41 3 -59 -15z m55 -44 c8 -21 -3 -45 -20 -45 -9 0 -14 11 -14 30 0
32 23 42 34 15z"/>
<path d="M2728 289 c-13 -7 -18 -23 -18 -54 0 -39 3 -46 31 -60 36 -19 33 -41
-5 -38 -21 1 -26 -2 -26 -23 0 -21 5 -24 33 -24 44 0 57 15 57 67 0 37 -4 44
-30 58 -34 18 -31 35 6 35 17 0 24 6 24 19 0 29 -39 40 -72 20z"/>
<path d="M2993 285 c-20 -14 -23 -25 -23 -86 0 -89 10 -109 55 -109 31 0 35 3
35 25 0 20 -5 25 -26 25 -24 0 -25 2 -22 53 3 44 6 52 23 52 15 0 20 7 20 25
0 31 -30 38 -62 15z"/>
<path d="M3467 293 c-4 -3 -20 -6 -37 -5 l-30 1 0 -100 c0 -90 2 -100 18 -97
14 3 18 17 22 73 4 53 9 70 20 70 12 0 16 -16 18 -72 2 -56 6 -73 17 -73 12 0
15 18 15 93 0 59 -4 97 -12 105 -14 14 -22 15 -31 5z"/>
<path d="M3551 274 c-24 -31 -29 -113 -8 -154 15 -31 66 -39 91 -15 25 26 23
148 -4 175 -27 27 -55 25 -79 -6z m60 -45 c16 -30 3 -91 -19 -87 -12 2 -18 15
-20 42 -5 64 15 88 39 45z"/>
<path d="M4227 293 c-4 -3 -20 -6 -37 -5 l-30 1 0 -100 c0 -92 1 -99 20 -99
17 0 19 8 22 72 2 60 6 73 21 76 15 3 17 -6 17 -72 0 -69 2 -76 20 -76 18 0
20 7 20 79 0 44 -4 91 -10 105 -9 25 -29 34 -43 19z"/>
<path d="M4318 289 c-13 -7 -18 -23 -18 -54 0 -39 3 -46 31 -60 36 -19 33 -41
-5 -38 -21 1 -26 -2 -26 -23 0 -21 5 -24 33 -24 44 0 57 15 57 67 0 37 -4 44
-30 58 -34 18 -31 35 6 35 17 0 24 6 24 19 0 29 -39 40 -72 20z"/>
<path d="M4969 281 c-21 -17 -24 -28 -24 -89 0 -81 13 -102 61 -102 44 0 54
21 54 109 0 61 -3 72 -22 85 -29 21 -41 20 -69 -3z m57 -55 c11 -43 1 -81 -21
-81 -15 0 -21 8 -23 29 -5 40 6 76 23 76 8 0 17 -11 21 -24z"/>
<path d="M5145 290 c-11 -4 -30 -6 -43 -3 -23 5 -23 5 -20 -93 3 -85 5 -99 21
-102 15 -3 17 5 17 66 0 66 7 82 36 82 2 0 4 -34 4 -75 0 -68 2 -75 20 -75 19
0 20 7 20 93 0 110 -9 127 -55 107z"/>
<path d="M1302 193 l3 -98 55 0 55 1 0 94 c0 82 -2 95 -17 98 -16 3 -18 -5
-18 -62 0 -55 -3 -67 -20 -76 -19 -10 -20 -8 -20 65 0 69 -2 75 -20 75 -20 0
-21 -5 -18 -97z"/>
<path d="M1440 184 c0 -58 -5 -115 -11 -126 -8 -16 -8 -24 4 -35 14 -14 17
-12 31 15 12 23 16 60 16 142 0 103 -1 110 -20 110 -19 0 -20 -7 -20 -106z"/>
<path d="M1630 189 c0 -92 1 -99 20 -99 18 0 20 7 20 65 0 49 4 67 15 71 8 4
15 18 15 33 0 24 -4 27 -35 28 l-35 1 0 -99z"/>
<path d="M1930 190 c0 -93 1 -100 20 -100 19 0 20 7 20 100 0 93 -1 100 -20
100 -19 0 -20 -7 -20 -100z"/>
<path d="M2170 190 c0 -93 1 -100 20 -100 19 0 20 7 20 100 0 93 -1 100 -20
100 -19 0 -20 -7 -20 -100z"/>
<path d="M2500 213 c0 -119 2 -123 66 -121 l54 2 0 98 c0 91 -1 98 -20 98 -18
0 -20 -7 -20 -69 0 -50 -4 -70 -14 -74 -22 -9 -26 2 -26 75 0 61 -2 68 -20 68
-18 0 -20 -7 -20 -77z"/>
<path d="M2650 190 c0 -87 2 -101 16 -98 24 5 25 192 1 196 -15 3 -17 -9 -17
-98z"/>
<path d="M2910 190 c0 -93 1 -100 20 -100 19 0 20 7 20 100 0 93 -1 100 -20
100 -19 0 -20 -7 -20 -100z"/>
<path d="M3330 190 c0 -93 1 -100 20 -100 19 0 20 7 20 100 0 93 -1 100 -20
100 -19 0 -20 -7 -20 -100z"/>
<path d="M3670 190 c0 -93 1 -100 20 -100 18 0 20 7 20 64 0 54 3 66 21 78 33
22 18 54 -26 56 l-35 1 0 -99z"/>
<path d="M3760 190 c0 -93 1 -100 20 -100 19 0 20 7 20 100 0 93 -1 100 -20
100 -19 0 -20 -7 -20 -100z"/>
<path d="M4500 190 c0 -93 1 -100 20 -100 19 0 20 7 20 100 0 93 -1 100 -20
100 -19 0 -20 -7 -20 -100z"/>
<path d="M4650 209 c0 -107 7 -118 70 -117 l50 1 0 99 c0 91 -1 98 -20 98 -18
0 -20 -7 -20 -69 0 -50 -4 -70 -14 -74 -22 -9 -26 2 -26 75 0 61 -2 68 -20 68
-18 0 -20 -7 -20 -81z"/>
<path d="M4890 190 c0 -82 3 -100 15 -100 12 0 15 18 15 100 0 82 -3 100 -15
100 -12 0 -15 -18 -15 -100z"/>
</g>
</svg>
